<?xml version="1.0" encoding="UTF-8"?>
<svg width="578px" height="552px" viewBox="0 0 578 552" version="1.1" xmlns="http://www.w3.org/2000/svg" xmlns:xlink="http://www.w3.org/1999/xlink">
    <!-- Generator: Sketch 63.1 (92452) - https://sketch.com -->
    <title>未命名 2</title>
    <desc>Created with Sketch.</desc>
    <g id="页面-1" stroke="none" stroke-width="1" fill="none" fill-rule="evenodd">
        <path d="M294.983977,3.70681042 L379.153977,174.25681 C380.121977,176.21581 381.991977,177.57281 384.153977,177.88681 L572.353977,205.23681 C575.976977,205.76481 578.485977,209.13081 577.958977,212.75381 C577.748977,214.19181 577.072977,215.52081 576.033977,216.53681 L439.803977,349.29681 C438.232977,350.82381 437.513977,353.02681 437.882977,355.18681 L470.043977,542.58681 C470.671977,546.19381 468.257977,549.62781 464.650977,550.25681 C463.203977,550.50881 461.712977,550.27381 460.413977,549.58681 L292.073977,461.10681 C290.136977,460.09681 287.829977,460.09681 285.893977,461.10681 L117.563977,549.60681 C114.316977,551.32481 110.293977,550.08481 108.575977,546.83881 C108.571977,546.83181 108.567977,546.82481 108.563977,546.81681 C107.894977,545.52481 107.663977,544.05081 107.903977,542.61681 L140.083977,355.18681 C140.454977,353.03681 139.743977,350.84181 138.183977,349.31681 L1.98397676,216.53681 C-0.631023239,213.96481 -0.665023239,209.76081 1.90597676,207.14681 C2.91597676,206.12081 4.23097676,205.45081 5.65397676,205.23681 L193.863977,177.88681 C196.025977,177.57281 197.895977,176.21581 198.863977,174.25681 L283.023977,3.70681042 C284.638977,0.420810423 288.611977,-0.934189577 291.898977,0.681810423 C293.212977,1.32781042 294.276977,2.39181042 294.922977,3.70681042 L294.983977,3.70681042 Z" id="Stroke-1" stroke="#FCCF15" stroke-width="1.5"></path>
    </g>
</svg>